<mxfile host="app.diagrams.net" modified="2022-04-27T05:22:51.976Z" agent="5.0 (Windows NT 10.0; Win64; x64) AppleWebKit/537.36 (KHTML, like Gecko) Chrome/100.0.4896.127 Safari/537.36" etag="tbClqwhrG9jtToCiqa9y" version="17.4.6" type="github">
  <diagram id="klZ2enK9rB3UyIUcdOdS" name="Page-1">
    <mxGraphModel dx="1422" dy="744" grid="1" gridSize="10" guides="1" tooltips="1" connect="1" arrows="1" fold="1" page="1" pageScale="1" pageWidth="850" pageHeight="1100" background="none" math="0" shadow="0">
      <root>
        <mxCell id="0" />
        <mxCell id="1" parent="0" />
        <mxCell id="DhtpvCUYV1Mmviackf9j-59" style="edgeStyle=orthogonalEdgeStyle;rounded=0;orthogonalLoop=1;jettySize=auto;html=1;exitX=1;exitY=0.5;exitDx=0;exitDy=0;fontSize=16;shadow=0;" parent="1" source="DhtpvCUYV1Mmviackf9j-13" edge="1">
          <mxGeometry relative="1" as="geometry">
            <mxPoint x="640" y="445.29850746268653" as="targetPoint" />
          </mxGeometry>
        </mxCell>
        <mxCell id="saE4_HH1IHfXRi4RmZmw-2" style="edgeStyle=orthogonalEdgeStyle;rounded=0;orthogonalLoop=1;jettySize=auto;html=1;entryX=0.5;entryY=0;entryDx=0;entryDy=0;fontSize=24;" edge="1" parent="1" source="DhtpvCUYV1Mmviackf9j-13" target="DhtpvCUYV1Mmviackf9j-47">
          <mxGeometry relative="1" as="geometry" />
        </mxCell>
        <mxCell id="DhtpvCUYV1Mmviackf9j-13" value="&lt;b style=&quot;font-size: 20px&quot;&gt;&lt;font style=&quot;font-size: 20px&quot;&gt;&lt;u&gt;Sub System&lt;/u&gt;-&lt;u&gt;Type of Requirement&lt;/u&gt;-&lt;u&gt;1.0&lt;/u&gt;&lt;/font&gt;&lt;/b&gt;" style="text;html=1;strokeColor=#82b366;fillColor=#d5e8d4;align=center;verticalAlign=middle;whiteSpace=wrap;rounded=0;shadow=0;" parent="1" vertex="1">
          <mxGeometry x="196.66666666666669" y="417.76119402985074" width="361.6666666666667" height="55.07462686567164" as="geometry" />
        </mxCell>
        <mxCell id="DhtpvCUYV1Mmviackf9j-47" value="Sub System" style="swimlane;fontStyle=0;childLayout=stackLayout;horizontal=1;startSize=30;horizontalStack=0;resizeParent=1;resizeParentMax=0;resizeLast=0;collapsible=1;marginBottom=0;shadow=0;fontSize=16;fillColor=#fff2cc;strokeColor=#d6b656;" parent="1" vertex="1">
          <mxGeometry x="80" y="620" width="320" height="250.29850746268653" as="geometry" />
        </mxCell>
        <mxCell id="DhtpvCUYV1Mmviackf9j-48" value="UM: User Management System" style="text;strokeColor=none;fillColor=none;align=left;verticalAlign=middle;spacingLeft=4;spacingRight=4;overflow=hidden;points=[[0,0.5],[1,0.5]];portConstraint=eastwest;rotatable=0;shadow=0;fontSize=16;" parent="DhtpvCUYV1Mmviackf9j-47" vertex="1">
          <mxGeometry y="30" width="320" height="55.07462686567164" as="geometry" />
        </mxCell>
        <mxCell id="DhtpvCUYV1Mmviackf9j-49" value="RM: Recommendation System" style="text;strokeColor=none;fillColor=none;align=left;verticalAlign=middle;spacingLeft=4;spacingRight=4;overflow=hidden;points=[[0,0.5],[1,0.5]];portConstraint=eastwest;rotatable=0;shadow=0;fontSize=16;" parent="DhtpvCUYV1Mmviackf9j-47" vertex="1">
          <mxGeometry y="85.07462686567163" width="320" height="55.07462686567164" as="geometry" />
        </mxCell>
        <mxCell id="saE4_HH1IHfXRi4RmZmw-1" value="GM: Genre Management System" style="text;strokeColor=none;fillColor=none;align=left;verticalAlign=middle;spacingLeft=4;spacingRight=4;overflow=hidden;points=[[0,0.5],[1,0.5]];portConstraint=eastwest;rotatable=0;shadow=0;fontSize=16;" vertex="1" parent="DhtpvCUYV1Mmviackf9j-47">
          <mxGeometry y="140.14925373134326" width="320" height="55.07462686567164" as="geometry" />
        </mxCell>
        <mxCell id="DhtpvCUYV1Mmviackf9j-50" value="MM: Music Management System" style="text;strokeColor=none;fillColor=none;align=left;verticalAlign=middle;spacingLeft=4;spacingRight=4;overflow=hidden;points=[[0,0.5],[1,0.5]];portConstraint=eastwest;rotatable=0;shadow=0;fontSize=16;" parent="DhtpvCUYV1Mmviackf9j-47" vertex="1">
          <mxGeometry y="195.2238805970149" width="320" height="55.07462686567164" as="geometry" />
        </mxCell>
        <mxCell id="DhtpvCUYV1Mmviackf9j-52" value="Requirements" style="swimlane;fontStyle=0;childLayout=stackLayout;horizontal=1;startSize=30;horizontalStack=0;resizeParent=1;resizeParentMax=0;resizeLast=0;collapsible=1;marginBottom=0;shadow=0;fontSize=16;fillColor=#fff2cc;strokeColor=#d6b656;" parent="1" vertex="1">
          <mxGeometry x="440.0033333333334" y="620.0014925373134" width="303.33333333333337" height="195.2238805970149" as="geometry">
            <mxRectangle x="400" y="440" width="50" height="40" as="alternateBounds" />
          </mxGeometry>
        </mxCell>
        <mxCell id="DhtpvCUYV1Mmviackf9j-53" value="F    : Functional Requirement" style="text;strokeColor=none;fillColor=none;align=left;verticalAlign=middle;spacingLeft=4;spacingRight=4;overflow=hidden;points=[[0,0.5],[1,0.5]];portConstraint=eastwest;rotatable=0;shadow=0;fontSize=16;" parent="DhtpvCUYV1Mmviackf9j-52" vertex="1">
          <mxGeometry y="30" width="303.33333333333337" height="55.07462686567164" as="geometry" />
        </mxCell>
        <mxCell id="DhtpvCUYV1Mmviackf9j-54" value="NF  : Non-Functional Requirement      " style="text;strokeColor=none;fillColor=none;align=left;verticalAlign=middle;spacingLeft=4;spacingRight=4;overflow=hidden;points=[[0,0.5],[1,0.5]];portConstraint=eastwest;rotatable=0;shadow=0;fontSize=16;" parent="DhtpvCUYV1Mmviackf9j-52" vertex="1">
          <mxGeometry y="85.07462686567163" width="303.33333333333337" height="55.07462686567164" as="geometry" />
        </mxCell>
        <mxCell id="DhtpvCUYV1Mmviackf9j-55" value="UR  : Usability Requirement  " style="text;strokeColor=none;fillColor=none;align=left;verticalAlign=middle;spacingLeft=4;spacingRight=4;overflow=hidden;points=[[0,0.5],[1,0.5]];portConstraint=eastwest;rotatable=0;shadow=0;fontSize=16;" parent="DhtpvCUYV1Mmviackf9j-52" vertex="1">
          <mxGeometry y="140.14925373134326" width="303.33333333333337" height="55.07462686567164" as="geometry" />
        </mxCell>
        <mxCell id="DhtpvCUYV1Mmviackf9j-58" style="edgeStyle=orthogonalEdgeStyle;rounded=0;orthogonalLoop=1;jettySize=auto;html=1;exitX=0.5;exitY=1;exitDx=0;exitDy=0;fontSize=16;shadow=0;" parent="1" source="DhtpvCUYV1Mmviackf9j-13" target="DhtpvCUYV1Mmviackf9j-52" edge="1">
          <mxGeometry relative="1" as="geometry" />
        </mxCell>
        <mxCell id="DhtpvCUYV1Mmviackf9j-60" value="Numbering" style="text;strokeColor=#d6b656;fillColor=#fff2cc;align=center;verticalAlign=top;spacingLeft=4;spacingRight=4;overflow=hidden;rotatable=0;points=[[0,0.5],[1,0.5]];portConstraint=eastwest;fontSize=16;shadow=0;" parent="1" vertex="1">
          <mxGeometry x="640" y="425.1" width="140" height="29.9" as="geometry" />
        </mxCell>
        <mxCell id="DhtpvCUYV1Mmviackf9j-61" value="&lt;b&gt;&lt;font style=&quot;font-size: 24px&quot;&gt;Legend&lt;/font&gt;&lt;/b&gt;" style="text;html=1;align=center;verticalAlign=middle;resizable=0;points=[];autosize=1;strokeColor=none;fillColor=none;fontSize=16;shadow=0;" parent="1" vertex="1">
          <mxGeometry x="327.5033333333334" y="340" width="100" height="30" as="geometry" />
        </mxCell>
      </root>
    </mxGraphModel>
  </diagram>
</mxfile>
